<mxfile host="app.diagrams.net" modified="2021-05-21T13:32:46.791Z" agent="5.0 (Windows NT 10.0; Win64; x64) AppleWebKit/537.36 (KHTML, like Gecko) Chrome/90.0.4430.212 Safari/537.36" etag="RLZvZZBEaJKiIJN37jGm" version="14.6.13" type="github">
  <diagram id="Qis9tCrOyXk1SUStovVj" name="Page-1">
    <mxGraphModel dx="2249" dy="794" grid="1" gridSize="10" guides="1" tooltips="1" connect="1" arrows="1" fold="1" page="1" pageScale="1" pageWidth="827" pageHeight="1169" math="0" shadow="0">
      <root>
        <mxCell id="0" />
        <mxCell id="1" parent="0" />
        <mxCell id="CPcJogsR8xis_oUPS2sc-5" style="edgeStyle=orthogonalEdgeStyle;rounded=0;orthogonalLoop=1;jettySize=auto;html=1;exitX=1;exitY=0.5;exitDx=0;exitDy=0;entryX=0;entryY=0.5;entryDx=0;entryDy=0;endArrow=none;endFill=0;" edge="1" parent="1" source="CPcJogsR8xis_oUPS2sc-1" target="CPcJogsR8xis_oUPS2sc-3">
          <mxGeometry relative="1" as="geometry" />
        </mxCell>
        <mxCell id="CPcJogsR8xis_oUPS2sc-1" value="CORRESPONDE" style="rhombus;whiteSpace=wrap;html=1;" vertex="1" parent="1">
          <mxGeometry x="190" y="180" width="110" height="90" as="geometry" />
        </mxCell>
        <mxCell id="CPcJogsR8xis_oUPS2sc-4" style="edgeStyle=orthogonalEdgeStyle;rounded=0;orthogonalLoop=1;jettySize=auto;html=1;exitX=1;exitY=0.5;exitDx=0;exitDy=0;entryX=0;entryY=0.5;entryDx=0;entryDy=0;endArrow=none;endFill=0;" edge="1" parent="1" source="CPcJogsR8xis_oUPS2sc-2" target="CPcJogsR8xis_oUPS2sc-1">
          <mxGeometry relative="1" as="geometry" />
        </mxCell>
        <mxCell id="CPcJogsR8xis_oUPS2sc-18" style="edgeStyle=orthogonalEdgeStyle;rounded=0;orthogonalLoop=1;jettySize=auto;html=1;exitX=0.5;exitY=1;exitDx=0;exitDy=0;entryX=0.5;entryY=0;entryDx=0;entryDy=0;endArrow=none;endFill=0;" edge="1" parent="1" source="CPcJogsR8xis_oUPS2sc-2" target="CPcJogsR8xis_oUPS2sc-14">
          <mxGeometry relative="1" as="geometry" />
        </mxCell>
        <mxCell id="CPcJogsR8xis_oUPS2sc-2" value="APARATO" style="rounded=0;whiteSpace=wrap;html=1;" vertex="1" parent="1">
          <mxGeometry x="20" y="195" width="120" height="60" as="geometry" />
        </mxCell>
        <mxCell id="CPcJogsR8xis_oUPS2sc-28" style="edgeStyle=orthogonalEdgeStyle;rounded=0;orthogonalLoop=1;jettySize=auto;html=1;exitX=0.25;exitY=1;exitDx=0;exitDy=0;entryX=0;entryY=0.5;entryDx=0;entryDy=0;endArrow=none;endFill=0;" edge="1" parent="1" source="CPcJogsR8xis_oUPS2sc-3" target="CPcJogsR8xis_oUPS2sc-23">
          <mxGeometry relative="1" as="geometry" />
        </mxCell>
        <mxCell id="CPcJogsR8xis_oUPS2sc-3" value="TIPO" style="rounded=0;whiteSpace=wrap;html=1;" vertex="1" parent="1">
          <mxGeometry x="340" y="195" width="120" height="60" as="geometry" />
        </mxCell>
        <mxCell id="CPcJogsR8xis_oUPS2sc-11" style="edgeStyle=orthogonalEdgeStyle;rounded=0;orthogonalLoop=1;jettySize=auto;html=1;exitX=1;exitY=0.5;exitDx=0;exitDy=0;entryX=0.11;entryY=0.991;entryDx=0;entryDy=0;entryPerimeter=0;endArrow=none;endFill=0;" edge="1" parent="1" source="CPcJogsR8xis_oUPS2sc-6" target="CPcJogsR8xis_oUPS2sc-2">
          <mxGeometry relative="1" as="geometry" />
        </mxCell>
        <mxCell id="CPcJogsR8xis_oUPS2sc-6" value="CODIGO&lt;span style=&quot;color: rgba(0 , 0 , 0 , 0) ; font-family: monospace ; font-size: 0px&quot;&gt;%3CmxGraphModel%3E%3Croot%3E%3CmxCell%20id%3D%220%22%2F%3E%3CmxCell%20id%3D%221%22%20parent%3D%220%22%2F%3E%3CmxCell%20id%3D%222%22%20value%3D%22APARATO%22%20style%3D%22rounded%3D0%3BwhiteSpace%3Dwrap%3Bhtml%3D1%3B%22%20vertex%3D%221%22%20parent%3D%221%22%3E%3CmxGeometry%20x%3D%2220%22%20y%3D%22200%22%20width%3D%22120%22%20height%3D%2260%22%20as%3D%22geometry%22%2F%3E%3C%2FmxCell%3E%3C%2Froot%3E%3C%2FmxGraphModel%3E&lt;/span&gt;" style="ellipse;whiteSpace=wrap;html=1;" vertex="1" parent="1">
          <mxGeometry x="-120" y="270" width="120" height="60" as="geometry" />
        </mxCell>
        <mxCell id="CPcJogsR8xis_oUPS2sc-10" style="edgeStyle=orthogonalEdgeStyle;rounded=0;orthogonalLoop=1;jettySize=auto;html=1;exitX=1;exitY=0.5;exitDx=0;exitDy=0;entryX=0.129;entryY=0.011;entryDx=0;entryDy=0;entryPerimeter=0;endArrow=none;endFill=0;" edge="1" parent="1" source="CPcJogsR8xis_oUPS2sc-7" target="CPcJogsR8xis_oUPS2sc-2">
          <mxGeometry relative="1" as="geometry" />
        </mxCell>
        <mxCell id="CPcJogsR8xis_oUPS2sc-7" value="DESCRIPCION" style="ellipse;whiteSpace=wrap;html=1;" vertex="1" parent="1">
          <mxGeometry x="-110" y="120" width="120" height="60" as="geometry" />
        </mxCell>
        <mxCell id="CPcJogsR8xis_oUPS2sc-27" style="edgeStyle=orthogonalEdgeStyle;rounded=0;orthogonalLoop=1;jettySize=auto;html=1;exitX=0;exitY=0.5;exitDx=0;exitDy=0;entryX=0.919;entryY=-0.012;entryDx=0;entryDy=0;entryPerimeter=0;endArrow=none;endFill=0;" edge="1" parent="1" source="CPcJogsR8xis_oUPS2sc-12" target="CPcJogsR8xis_oUPS2sc-3">
          <mxGeometry relative="1" as="geometry" />
        </mxCell>
        <mxCell id="CPcJogsR8xis_oUPS2sc-12" value="&lt;u&gt;CARACTERISTICAS&lt;/u&gt;" style="ellipse;whiteSpace=wrap;html=1;" vertex="1" parent="1">
          <mxGeometry x="520" y="120" width="120" height="60" as="geometry" />
        </mxCell>
        <mxCell id="CPcJogsR8xis_oUPS2sc-25" style="edgeStyle=orthogonalEdgeStyle;rounded=0;orthogonalLoop=1;jettySize=auto;html=1;exitX=0;exitY=0.5;exitDx=0;exitDy=0;entryX=0.931;entryY=0.988;entryDx=0;entryDy=0;entryPerimeter=0;endArrow=none;endFill=0;" edge="1" parent="1" source="CPcJogsR8xis_oUPS2sc-13" target="CPcJogsR8xis_oUPS2sc-3">
          <mxGeometry relative="1" as="geometry" />
        </mxCell>
        <mxCell id="CPcJogsR8xis_oUPS2sc-13" value="&lt;u&gt;NOMBRE&lt;/u&gt;" style="ellipse;whiteSpace=wrap;html=1;" vertex="1" parent="1">
          <mxGeometry x="520" y="270" width="120" height="60" as="geometry" />
        </mxCell>
        <mxCell id="CPcJogsR8xis_oUPS2sc-19" style="edgeStyle=orthogonalEdgeStyle;rounded=0;orthogonalLoop=1;jettySize=auto;html=1;exitX=0.5;exitY=1;exitDx=0;exitDy=0;entryX=0.5;entryY=0;entryDx=0;entryDy=0;endArrow=none;endFill=0;" edge="1" parent="1" source="CPcJogsR8xis_oUPS2sc-14" target="CPcJogsR8xis_oUPS2sc-15">
          <mxGeometry relative="1" as="geometry" />
        </mxCell>
        <mxCell id="CPcJogsR8xis_oUPS2sc-42" style="edgeStyle=orthogonalEdgeStyle;rounded=0;orthogonalLoop=1;jettySize=auto;html=1;exitX=0;exitY=0.5;exitDx=0;exitDy=0;entryX=1;entryY=0.5;entryDx=0;entryDy=0;endArrow=none;endFill=0;" edge="1" parent="1" source="CPcJogsR8xis_oUPS2sc-14" target="CPcJogsR8xis_oUPS2sc-41">
          <mxGeometry relative="1" as="geometry" />
        </mxCell>
        <mxCell id="CPcJogsR8xis_oUPS2sc-14" value="LLEVA" style="rhombus;whiteSpace=wrap;html=1;" vertex="1" parent="1">
          <mxGeometry x="40" y="360" width="80" height="80" as="geometry" />
        </mxCell>
        <mxCell id="CPcJogsR8xis_oUPS2sc-37" style="edgeStyle=orthogonalEdgeStyle;rounded=0;orthogonalLoop=1;jettySize=auto;html=1;exitX=1;exitY=0.5;exitDx=0;exitDy=0;entryX=0;entryY=0.5;entryDx=0;entryDy=0;endArrow=none;endFill=0;" edge="1" parent="1" source="CPcJogsR8xis_oUPS2sc-15" target="CPcJogsR8xis_oUPS2sc-31">
          <mxGeometry relative="1" as="geometry" />
        </mxCell>
        <mxCell id="CPcJogsR8xis_oUPS2sc-15" value="COMPONENTES" style="rounded=0;whiteSpace=wrap;html=1;" vertex="1" parent="1">
          <mxGeometry x="20" y="500" width="120" height="60" as="geometry" />
        </mxCell>
        <mxCell id="CPcJogsR8xis_oUPS2sc-20" style="edgeStyle=orthogonalEdgeStyle;rounded=0;orthogonalLoop=1;jettySize=auto;html=1;exitX=1;exitY=0.5;exitDx=0;exitDy=0;entryX=0.11;entryY=-0.014;entryDx=0;entryDy=0;entryPerimeter=0;endArrow=none;endFill=0;" edge="1" parent="1" source="CPcJogsR8xis_oUPS2sc-16" target="CPcJogsR8xis_oUPS2sc-15">
          <mxGeometry relative="1" as="geometry" />
        </mxCell>
        <mxCell id="CPcJogsR8xis_oUPS2sc-16" value="CODIGO&lt;span style=&quot;color: rgba(0 , 0 , 0 , 0) ; font-family: monospace ; font-size: 0px&quot;&gt;%3CmxGraphModel%3E%3Croot%3E%3CmxCell%20id%3D%220%22%2F%3E%3CmxCell%20id%3D%221%22%20parent%3D%220%22%2F%3E%3CmxCell%20id%3D%222%22%20value%3D%22APARATO%22%20style%3D%22rounded%3D0%3BwhiteSpace%3Dwrap%3Bhtml%3D1%3B%22%20vertex%3D%221%22%20parent%3D%221%22%3E%3CmxGeometry%20x%3D%2220%22%20y%3D%22200%22%20width%3D%22120%22%20height%3D%2260%22%20as%3D%22geometry%22%2F%3E%3C%2FmxCell%3E%3C%2Froot%3E%3C%2FmxGraphModel%3E&lt;/span&gt;" style="ellipse;whiteSpace=wrap;html=1;" vertex="1" parent="1">
          <mxGeometry x="-120" y="440" width="120" height="60" as="geometry" />
        </mxCell>
        <mxCell id="CPcJogsR8xis_oUPS2sc-21" style="edgeStyle=orthogonalEdgeStyle;rounded=0;orthogonalLoop=1;jettySize=auto;html=1;exitX=1;exitY=0.5;exitDx=0;exitDy=0;entryX=0.1;entryY=1.025;entryDx=0;entryDy=0;entryPerimeter=0;endArrow=none;endFill=0;" edge="1" parent="1" source="CPcJogsR8xis_oUPS2sc-17" target="CPcJogsR8xis_oUPS2sc-15">
          <mxGeometry relative="1" as="geometry" />
        </mxCell>
        <mxCell id="CPcJogsR8xis_oUPS2sc-17" value="CODIGO&lt;span style=&quot;color: rgba(0 , 0 , 0 , 0) ; font-family: monospace ; font-size: 0px&quot;&gt;%3CmxGraphModel%3E%3Croot%3E%3CmxCell%20id%3D%220%22%2F%3E%3CmxCell%20id%3D%221%22%20parent%3D%220%22%2F%3E%3CmxCell%20id%3D%222%22%20value%3D%22APARATO%22%20style%3D%22rounded%3D0%3BwhiteSpace%3Dwrap%3Bhtml%3D1%3B%22%20vertex%3D%221%22%20parent%3D%221%22%3E%3CmxGeometry%20x%3D%2220%22%20y%3D%22200%22%20width%3D%22120%22%20height%3D%2260%22%20as%3D%22geometry%22%2F%3E%3C%2FmxCell%3E%3C%2Froot%3E%3C%2FmxGraphModel%3E&lt;/span&gt;" style="ellipse;whiteSpace=wrap;html=1;" vertex="1" parent="1">
          <mxGeometry x="-120" y="575" width="120" height="60" as="geometry" />
        </mxCell>
        <mxCell id="CPcJogsR8xis_oUPS2sc-29" style="edgeStyle=orthogonalEdgeStyle;rounded=0;orthogonalLoop=1;jettySize=auto;html=1;exitX=1;exitY=0.5;exitDx=0;exitDy=0;entryX=0.75;entryY=1;entryDx=0;entryDy=0;endArrow=none;endFill=0;" edge="1" parent="1" source="CPcJogsR8xis_oUPS2sc-23" target="CPcJogsR8xis_oUPS2sc-3">
          <mxGeometry relative="1" as="geometry" />
        </mxCell>
        <mxCell id="CPcJogsR8xis_oUPS2sc-23" value="OTRO TIPO" style="rhombus;whiteSpace=wrap;html=1;" vertex="1" parent="1">
          <mxGeometry x="360" y="360" width="80" height="80" as="geometry" />
        </mxCell>
        <mxCell id="CPcJogsR8xis_oUPS2sc-38" style="edgeStyle=orthogonalEdgeStyle;rounded=0;orthogonalLoop=1;jettySize=auto;html=1;exitX=1;exitY=0.5;exitDx=0;exitDy=0;entryX=0;entryY=0.5;entryDx=0;entryDy=0;endArrow=none;endFill=0;" edge="1" parent="1" source="CPcJogsR8xis_oUPS2sc-31" target="CPcJogsR8xis_oUPS2sc-32">
          <mxGeometry relative="1" as="geometry" />
        </mxCell>
        <mxCell id="CPcJogsR8xis_oUPS2sc-40" style="edgeStyle=orthogonalEdgeStyle;rounded=0;orthogonalLoop=1;jettySize=auto;html=1;exitX=0.5;exitY=1;exitDx=0;exitDy=0;entryX=0.5;entryY=0;entryDx=0;entryDy=0;endArrow=none;endFill=0;" edge="1" parent="1" source="CPcJogsR8xis_oUPS2sc-31" target="CPcJogsR8xis_oUPS2sc-39">
          <mxGeometry relative="1" as="geometry" />
        </mxCell>
        <mxCell id="CPcJogsR8xis_oUPS2sc-31" value="SUMINISTRA" style="rhombus;whiteSpace=wrap;html=1;" vertex="1" parent="1">
          <mxGeometry x="190" y="485" width="110" height="90" as="geometry" />
        </mxCell>
        <mxCell id="CPcJogsR8xis_oUPS2sc-32" value="FABRICANTES" style="rounded=0;whiteSpace=wrap;html=1;" vertex="1" parent="1">
          <mxGeometry x="340" y="500" width="120" height="60" as="geometry" />
        </mxCell>
        <mxCell id="CPcJogsR8xis_oUPS2sc-36" style="edgeStyle=orthogonalEdgeStyle;rounded=0;orthogonalLoop=1;jettySize=auto;html=1;exitX=0;exitY=0.5;exitDx=0;exitDy=0;entryX=0.882;entryY=1.019;entryDx=0;entryDy=0;entryPerimeter=0;endArrow=none;endFill=0;" edge="1" parent="1" source="CPcJogsR8xis_oUPS2sc-33" target="CPcJogsR8xis_oUPS2sc-32">
          <mxGeometry relative="1" as="geometry" />
        </mxCell>
        <mxCell id="CPcJogsR8xis_oUPS2sc-33" value="DOMICILIO" style="ellipse;whiteSpace=wrap;html=1;" vertex="1" parent="1">
          <mxGeometry x="520" y="575" width="120" height="60" as="geometry" />
        </mxCell>
        <mxCell id="CPcJogsR8xis_oUPS2sc-35" style="edgeStyle=orthogonalEdgeStyle;rounded=0;orthogonalLoop=1;jettySize=auto;html=1;exitX=0;exitY=0.5;exitDx=0;exitDy=0;entryX=0.903;entryY=-0.008;entryDx=0;entryDy=0;entryPerimeter=0;endArrow=none;endFill=0;" edge="1" parent="1" source="CPcJogsR8xis_oUPS2sc-34" target="CPcJogsR8xis_oUPS2sc-32">
          <mxGeometry relative="1" as="geometry" />
        </mxCell>
        <mxCell id="CPcJogsR8xis_oUPS2sc-34" value="CIF" style="ellipse;whiteSpace=wrap;html=1;" vertex="1" parent="1">
          <mxGeometry x="520" y="425" width="120" height="60" as="geometry" />
        </mxCell>
        <mxCell id="CPcJogsR8xis_oUPS2sc-39" value="PRECIO" style="ellipse;whiteSpace=wrap;html=1;" vertex="1" parent="1">
          <mxGeometry x="185" y="610" width="120" height="60" as="geometry" />
        </mxCell>
        <mxCell id="CPcJogsR8xis_oUPS2sc-41" value="CANTIDAD" style="ellipse;whiteSpace=wrap;html=1;" vertex="1" parent="1">
          <mxGeometry x="-110" y="370" width="120" height="60" as="geometry" />
        </mxCell>
        <mxCell id="CPcJogsR8xis_oUPS2sc-43" value="1:M" style="text;html=1;strokeColor=none;fillColor=none;align=center;verticalAlign=middle;whiteSpace=wrap;rounded=0;" vertex="1" parent="1">
          <mxGeometry x="380" y="340" width="40" height="20" as="geometry" />
        </mxCell>
        <mxCell id="CPcJogsR8xis_oUPS2sc-44" value="1:1" style="text;html=1;strokeColor=none;fillColor=none;align=center;verticalAlign=middle;whiteSpace=wrap;rounded=0;" vertex="1" parent="1">
          <mxGeometry x="225" y="150" width="40" height="20" as="geometry" />
        </mxCell>
        <mxCell id="CPcJogsR8xis_oUPS2sc-45" value="M:N" style="text;html=1;strokeColor=none;fillColor=none;align=center;verticalAlign=middle;whiteSpace=wrap;rounded=0;" vertex="1" parent="1">
          <mxGeometry x="130" y="390" width="40" height="20" as="geometry" />
        </mxCell>
        <mxCell id="CPcJogsR8xis_oUPS2sc-46" value="1:1" style="text;html=1;strokeColor=none;fillColor=none;align=center;verticalAlign=middle;whiteSpace=wrap;rounded=0;" vertex="1" parent="1">
          <mxGeometry x="225" y="460" width="40" height="20" as="geometry" />
        </mxCell>
      </root>
    </mxGraphModel>
  </diagram>
</mxfile>
